# xmcd
#
# Track frame offsets:
#  150
#  18229
#  32051
#  54220
#  64184
#  80875
#  103477
#  121578
#  143891
#  170576
#  185635
#  203336
#  211543
#  223948
#  240491
#  252865
#  267559
#  288616
#  317074
#
# Disc length: 4502 seconds
#
# Revision: 0
# Processed by: cddbd v1.5.1PL2 Copyright (c) Steve Scherf et al.
# Submitted via: Collectorz.com_Music_Collector 6.9
#
DISCID=1b119413
DTITLE=Breakout - ZOL and Zagiel Ziemi
DYEAR=1979
DGENRE=Blues
TTITLE0=Poki usmiech ma twarz dziecka
TTITLE1=Pozegnalny blues
TTITLE2=Dzien zwegla sie
TTITLE3=Idzie Wenus
TTITLE4=Ona odeszla stad
TTITLE5=Gdy masz przyjsc
TTITLE6=Oslepil mnie deszcz
TTITLE7=Co tam za mgla
TTITLE8=W cieniu bluesa
TTITLE9=Jestem zwyczajnym miesniem
TTITLE10=Dlaczego walcze
TTITLE11=Ile Olimpiad
TTITLE12=Rekord jest proba
TTITLE13=Zagiel Ziemi
TTITLE14=To nas laczy
TTITLE15=W tlumie stadionu
TTITLE16=Historia dysku
TTITLE17=Maraton
TTITLE18=Nad stadionem w Olimpii
EXTD=
EXTT0=
EXTT1=
EXTT2=
EXTT3=
EXTT4=
EXTT5=
EXTT6=
EXTT7=
EXTT8=
EXTT9=
EXTT10=
EXTT11=
EXTT12=
EXTT13=
EXTT14=
EXTT15=
EXTT16=
EXTT17=
EXTT18=
PLAYORDER=
